solid soft_gripper
  facet normal 0 0 0
    outer loop
      vertex -0.004000 0.016000 0.000000
      vertex 0.004000 0.016000 0.000000
      vertex 0.004000 0.015693 0.003121
    endloop
  endfacet
  facet normal 0 0 0
    outer loop
      vertex -0.004000 0.016000 0.000000
      vertex 0.004000 0.015693 0.003121
      vertex -0.004000 0.015693 0.003121
    endloop
  endfacet
  facet normal 0 0 0
    outer loop
      vertex -0.004000 0.015693 0.003121
      vertex 0.004000 0.015693 0.003121
      vertex 0.004000 0.014782 0.006123
    endloop
  endfacet
  facet normal 0 0 0
    outer loop
      vertex -0.004000 0.015693 0.003121
      vertex 0.004000 0.014782 0.006123
      vertex -0.004000 0.014782 0.006123
    endloop
  endfacet
  facet normal 0 0 0
    outer loop
      vertex -0.004000 0.014782 0.006123
      vertex 0.004000 0.014782 0.006123
      vertex 0.004000 0.013304 0.008889
    endloop
  endfacet
  facet normal 0 0 0
    outer loop
      vertex -0.004000 0.014782 0.006123
      vertex 0.004000 0.013304 0.008889
      vertex -0.004000 0.013304 0.008889
    endloop
  endfacet
  facet normal 0 0 0
    outer loop
      vertex -0.004000 0.013304 0.008889
      vertex 0.004000 0.013304 0.008889
      vertex 0.004000 0.011314 0.011314
    endloop
  endfacet
  facet normal 0 0 0
    outer loop
      vertex -0.004000 0.013304 0.008889
      vertex 0.004000 0.011314 0.011314
      vertex -0.004000 0.011314 0.011314
    endloop
  endfacet
  facet normal 0 0 0
    outer loop
      vertex -0.004000 0.011314 0.011314
      vertex 0.004000 0.011314 0.011314
      vertex 0.004000 0.008889 0.013304
    endloop
  endfacet
  facet normal 0 0 0
    outer loop
      vertex -0.004000 0.011314 0.011314
      vertex 0.004000 0.008889 0.013304
      vertex -0.004000 0.008889 0.013304
    endloop
  endfacet
  facet normal 0 0 0
    outer loop
      vertex -0.004000 0.008889 0.013304
      vertex 0.004000 0.008889 0.013304
      vertex 0.004000 0.006123 0.014782
    endloop
  endfacet
  facet normal 0 0 0
    outer loop
      vertex -0.004000 0.008889 0.013304
      vertex 0.004000 0.006123 0.014782
      vertex -0.004000 0.006123 0.014782
    endloop
  endfacet
  facet normal 0 0 0
    outer loop
      vertex -0.004000 0.006123 0.014782
      vertex 0.004000 0.006123 0.014782
      vertex 0.004000 0.003121 0.015693
    endloop
  endfacet
  facet normal 0 0 0
    outer loop
      vertex -0.004000 0.006123 0.014782
      vertex 0.004000 0.003121 0.015693
      vertex -0.004000 0.003121 0.015693
    endloop
  endfacet
  facet normal 0 0 0
    outer loop
      vertex -0.004000 0.003121 0.015693
      vertex 0.004000 0.003121 0.015693
      vertex 0.004000 0.000000 0.016000
    endloop
  endfacet
  facet normal 0 0 0
    outer loop
      vertex -0.004000 0.003121 0.015693
      vertex 0.004000 0.000000 0.016000
      vertex -0.004000 0.000000 0.016000
    endloop
  endfacet
  facet normal 0 0 0
    outer loop
      vertex -0.004000 0.000000 0.016000
      vertex 0.004000 0.000000 0.016000
      vertex 0.004000 -0.003121 0.015693
    endloop
  endfacet
  facet normal 0 0 0
    outer loop
      vertex -0.004000 0.000000 0.016000
      vertex 0.004000 -0.003121 0.015693
      vertex -0.004000 -0.003121 0.015693
    endloop
  endfacet
  facet normal 0 0 0
    outer loop
      vertex -0.004000 -0.003121 0.015693
      vertex 0.004000 -0.003121 0.015693
      vertex 0.004000 -0.006123 0.014782
    endloop
  endfacet
  facet normal 0 0 0
    outer loop
      vertex -0.004000 -0.003121 0.015693
      vertex 0.004000 -0.006123 0.014782
      vertex -0.004000 -0.006123 0.014782
    endloop
  endfacet
  facet normal 0 0 0
    outer loop
      vertex -0.004000 -0.006123 0.014782
      vertex 0.004000 -0.006123 0.014782
      vertex 0.004000 -0.008889 0.013304
    endloop
  endfacet
  facet normal 0 0 0
    outer loop
      vertex -0.004000 -0.006123 0.014782
      vertex 0.004000 -0.008889 0.013304
      vertex -0.004000 -0.008889 0.013304
    endloop
  endfacet
  facet normal 0 0 0
    outer loop
      vertex -0.004000 -0.008889 0.013304
      vertex 0.004000 -0.008889 0.013304
      vertex 0.004000 -0.011314 0.011314
    endloop
  endfacet
  facet normal 0 0 0
    outer loop
      vertex -0.004000 -0.008889 0.013304
      vertex 0.004000 -0.011314 0.011314
      vertex -0.004000 -0.011314 0.011314
    endloop
  endfacet
  facet normal 0 0 0
    outer loop
      vertex -0.004000 -0.011314 0.011314
      vertex 0.004000 -0.011314 0.011314
      vertex 0.004000 -0.013304 0.008889
    endloop
  endfacet
  facet normal 0 0 0
    outer loop
      vertex -0.004000 -0.011314 0.011314
      vertex 0.004000 -0.013304 0.008889
      vertex -0.004000 -0.013304 0.008889
    endloop
  endfacet
  facet normal 0 0 0
    outer loop
      vertex -0.004000 -0.013304 0.008889
      vertex 0.004000 -0.013304 0.008889
      vertex 0.004000 -0.014782 0.006123
    endloop
  endfacet
  facet normal 0 0 0
    outer loop
      vertex -0.004000 -0.013304 0.008889
      vertex 0.004000 -0.014782 0.006123
      vertex -0.004000 -0.014782 0.006123
    endloop
  endfacet
  facet normal 0 0 0
    outer loop
      vertex -0.004000 -0.014782 0.006123
      vertex 0.004000 -0.014782 0.006123
      vertex 0.004000 -0.015693 0.003121
    endloop
  endfacet
  facet normal 0 0 0
    outer loop
      vertex -0.004000 -0.014782 0.006123
      vertex 0.004000 -0.015693 0.003121
      vertex -0.004000 -0.015693 0.003121
    endloop
  endfacet
  facet normal 0 0 0
    outer loop
      vertex -0.004000 -0.015693 0.003121
      vertex 0.004000 -0.015693 0.003121
      vertex 0.004000 -0.016000 0.000000
    endloop
  endfacet
  facet normal 0 0 0
    outer loop
      vertex -0.004000 -0.015693 0.003121
      vertex 0.004000 -0.016000 0.000000
      vertex -0.004000 -0.016000 0.000000
    endloop
  endfacet
  facet normal 0 0 0
    outer loop
      vertex -0.004000 -0.016000 0.000000
      vertex 0.004000 -0.016000 0.000000
      vertex 0.004000 -0.015693 -0.003121
    endloop
  endfacet
  facet normal 0 0 0
    outer loop
      vertex -0.004000 -0.016000 0.000000
      vertex 0.004000 -0.015693 -0.003121
      vertex -0.004000 -0.015693 -0.003121
    endloop
  endfacet
  facet normal 0 0 0
    outer loop
      vertex -0.004000 -0.015693 -0.003121
      vertex 0.004000 -0.015693 -0.003121
      vertex 0.004000 -0.014782 -0.006123
    endloop
  endfacet
  facet normal 0 0 0
    outer loop
      vertex -0.004000 -0.015693 -0.003121
      vertex 0.004000 -0.014782 -0.006123
      vertex -0.004000 -0.014782 -0.006123
    endloop
  endfacet
  facet normal 0 0 0
    outer loop
      vertex -0.004000 -0.014782 -0.006123
      vertex 0.004000 -0.014782 -0.006123
      vertex 0.004000 -0.013304 -0.008889
    endloop
  endfacet
  facet normal 0 0 0
    outer loop
      vertex -0.004000 -0.014782 -0.006123
      vertex 0.004000 -0.013304 -0.008889
      vertex -0.004000 -0.013304 -0.008889
    endloop
  endfacet
  facet normal 0 0 0
    outer loop
      vertex -0.004000 -0.013304 -0.008889
      vertex 0.004000 -0.013304 -0.008889
      vertex 0.004000 -0.011314 -0.011314
    endloop
  endfacet
  facet normal 0 0 0
    outer loop
      vertex -0.004000 -0.013304 -0.008889
      vertex 0.004000 -0.011314 -0.011314
      vertex -0.004000 -0.011314 -0.011314
    endloop
  endfacet
  facet normal 0 0 0
    outer loop
      vertex -0.004000 -0.011314 -0.011314
      vertex 0.004000 -0.011314 -0.011314
      vertex 0.004000 -0.008889 -0.013304
    endloop
  endfacet
  facet normal 0 0 0
    outer loop
      vertex -0.004000 -0.011314 -0.011314
      vertex 0.004000 -0.008889 -0.013304
      vertex -0.004000 -0.008889 -0.013304
    endloop
  endfacet
  facet normal 0 0 0
    outer loop
      vertex -0.004000 -0.008889 -0.013304
      vertex 0.004000 -0.008889 -0.013304
      vertex 0.004000 -0.006123 -0.014782
    endloop
  endfacet
  facet normal 0 0 0
    outer loop
      vertex -0.004000 -0.008889 -0.013304
      vertex 0.004000 -0.006123 -0.014782
      vertex -0.004000 -0.006123 -0.014782
    endloop
  endfacet
  facet normal 0 0 0
    outer loop
      vertex -0.004000 -0.006123 -0.014782
      vertex 0.004000 -0.006123 -0.014782
      vertex 0.004000 -0.003121 -0.015693
    endloop
  endfacet
  facet normal 0 0 0
    outer loop
      vertex -0.004000 -0.006123 -0.014782
      vertex 0.004000 -0.003121 -0.015693
      vertex -0.004000 -0.003121 -0.015693
    endloop
  endfacet
  facet normal 0 0 0
    outer loop
      vertex -0.004000 -0.003121 -0.015693
      vertex 0.004000 -0.003121 -0.015693
      vertex 0.004000 -0.000000 -0.016000
    endloop
  endfacet
  facet normal 0 0 0
    outer loop
      vertex -0.004000 -0.003121 -0.015693
      vertex 0.004000 -0.000000 -0.016000
      vertex -0.004000 -0.000000 -0.016000
    endloop
  endfacet
  facet normal 0 0 0
    outer loop
      vertex -0.004000 -0.000000 -0.016000
      vertex 0.004000 -0.000000 -0.016000
      vertex 0.004000 0.003121 -0.015693
    endloop
  endfacet
  facet normal 0 0 0
    outer loop
      vertex -0.004000 -0.000000 -0.016000
      vertex 0.004000 0.003121 -0.015693
      vertex -0.004000 0.003121 -0.015693
    endloop
  endfacet
  facet normal 0 0 0
    outer loop
      vertex -0.004000 0.003121 -0.015693
      vertex 0.004000 0.003121 -0.015693
      vertex 0.004000 0.006123 -0.014782
    endloop
  endfacet
  facet normal 0 0 0
    outer loop
      vertex -0.004000 0.003121 -0.015693
      vertex 0.004000 0.006123 -0.014782
      vertex -0.004000 0.006123 -0.014782
    endloop
  endfacet
  facet normal 0 0 0
    outer loop
      vertex -0.004000 0.006123 -0.014782
      vertex 0.004000 0.006123 -0.014782
      vertex 0.004000 0.008889 -0.013304
    endloop
  endfacet
  facet normal 0 0 0
    outer loop
      vertex -0.004000 0.006123 -0.014782
      vertex 0.004000 0.008889 -0.013304
      vertex -0.004000 0.008889 -0.013304
    endloop
  endfacet
  facet normal 0 0 0
    outer loop
      vertex -0.004000 0.008889 -0.013304
      vertex 0.004000 0.008889 -0.013304
      vertex 0.004000 0.011314 -0.011314
    endloop
  endfacet
  facet normal 0 0 0
    outer loop
      vertex -0.004000 0.008889 -0.013304
      vertex 0.004000 0.011314 -0.011314
      vertex -0.004000 0.011314 -0.011314
    endloop
  endfacet
  facet normal 0 0 0
    outer loop
      vertex -0.004000 0.011314 -0.011314
      vertex 0.004000 0.011314 -0.011314
      vertex 0.004000 0.013304 -0.008889
    endloop
  endfacet
  facet normal 0 0 0
    outer loop
      vertex -0.004000 0.011314 -0.011314
      vertex 0.004000 0.013304 -0.008889
      vertex -0.004000 0.013304 -0.008889
    endloop
  endfacet
  facet normal 0 0 0
    outer loop
      vertex -0.004000 0.013304 -0.008889
      vertex 0.004000 0.013304 -0.008889
      vertex 0.004000 0.014782 -0.006123
    endloop
  endfacet
  facet normal 0 0 0
    outer loop
      vertex -0.004000 0.013304 -0.008889
      vertex 0.004000 0.014782 -0.006123
      vertex -0.004000 0.014782 -0.006123
    endloop
  endfacet
  facet normal 0 0 0
    outer loop
      vertex -0.004000 0.014782 -0.006123
      vertex 0.004000 0.014782 -0.006123
      vertex 0.004000 0.015693 -0.003121
    endloop
  endfacet
  facet normal 0 0 0
    outer loop
      vertex -0.004000 0.014782 -0.006123
      vertex 0.004000 0.015693 -0.003121
      vertex -0.004000 0.015693 -0.003121
    endloop
  endfacet
  facet normal 0 0 0
    outer loop
      vertex -0.004000 0.015693 -0.003121
      vertex 0.004000 0.015693 -0.003121
      vertex 0.004000 0.016000 -0.000000
    endloop
  endfacet
  facet normal 0 0 0
    outer loop
      vertex -0.004000 0.015693 -0.003121
      vertex 0.004000 0.016000 -0.000000
      vertex -0.004000 0.016000 -0.000000
    endloop
  endfacet
  facet normal 0 0 0
    outer loop
      vertex -0.004000 0.006000 0.000000
      vertex 0.004000 0.005885 0.001171
      vertex 0.004000 0.006000 0.000000
    endloop
  endfacet
  facet normal 0 0 0
    outer loop
      vertex -0.004000 0.006000 0.000000
      vertex -0.004000 0.005885 0.001171
      vertex 0.004000 0.005885 0.001171
    endloop
  endfacet
  facet normal 0 0 0
    outer loop
      vertex -0.004000 0.005885 0.001171
      vertex 0.004000 0.005543 0.002296
      vertex 0.004000 0.005885 0.001171
    endloop
  endfacet
  facet normal 0 0 0
    outer loop
      vertex -0.004000 0.005885 0.001171
      vertex -0.004000 0.005543 0.002296
      vertex 0.004000 0.005543 0.002296
    endloop
  endfacet
  facet normal 0 0 0
    outer loop
      vertex -0.004000 0.005543 0.002296
      vertex 0.004000 0.004989 0.003333
      vertex 0.004000 0.005543 0.002296
    endloop
  endfacet
  facet normal 0 0 0
    outer loop
      vertex -0.004000 0.005543 0.002296
      vertex -0.004000 0.004989 0.003333
      vertex 0.004000 0.004989 0.003333
    endloop
  endfacet
  facet normal 0 0 0
    outer loop
      vertex -0.004000 0.004989 0.003333
      vertex 0.004000 0.004243 0.004243
      vertex 0.004000 0.004989 0.003333
    endloop
  endfacet
  facet normal 0 0 0
    outer loop
      vertex -0.004000 0.004989 0.003333
      vertex -0.004000 0.004243 0.004243
      vertex 0.004000 0.004243 0.004243
    endloop
  endfacet
  facet normal 0 0 0
    outer loop
      vertex -0.004000 0.004243 0.004243
      vertex 0.004000 0.003333 0.004989
      vertex 0.004000 0.004243 0.004243
    endloop
  endfacet
  facet normal 0 0 0
    outer loop
      vertex -0.004000 0.004243 0.004243
      vertex -0.004000 0.003333 0.004989
      vertex 0.004000 0.003333 0.004989
    endloop
  endfacet
  facet normal 0 0 0
    outer loop
      vertex -0.004000 0.003333 0.004989
      vertex 0.004000 0.002296 0.005543
      vertex 0.004000 0.003333 0.004989
    endloop
  endfacet
  facet normal 0 0 0
    outer loop
      vertex -0.004000 0.003333 0.004989
      vertex -0.004000 0.002296 0.005543
      vertex 0.004000 0.002296 0.005543
    endloop
  endfacet
  facet normal 0 0 0
    outer loop
      vertex -0.004000 0.002296 0.005543
      vertex 0.004000 0.001171 0.005885
      vertex 0.004000 0.002296 0.005543
    endloop
  endfacet
  facet normal 0 0 0
    outer loop
      vertex -0.004000 0.002296 0.005543
      vertex -0.004000 0.001171 0.005885
      vertex 0.004000 0.001171 0.005885
    endloop
  endfacet
  facet normal 0 0 0
    outer loop
      vertex -0.004000 0.001171 0.005885
      vertex 0.004000 0.000000 0.006000
      vertex 0.004000 0.001171 0.005885
    endloop
  endfacet
  facet normal 0 0 0
    outer loop
      vertex -0.004000 0.001171 0.005885
      vertex -0.004000 0.000000 0.006000
      vertex 0.004000 0.000000 0.006000
    endloop
  endfacet
  facet normal 0 0 0
    outer loop
      vertex -0.004000 0.000000 0.006000
      vertex 0.004000 -0.001171 0.005885
      vertex 0.004000 0.000000 0.006000
    endloop
  endfacet
  facet normal 0 0 0
    outer loop
      vertex -0.004000 0.000000 0.006000
      vertex -0.004000 -0.001171 0.005885
      vertex 0.004000 -0.001171 0.005885
    endloop
  endfacet
  facet normal 0 0 0
    outer loop
      vertex -0.004000 -0.001171 0.005885
      vertex 0.004000 -0.002296 0.005543
      vertex 0.004000 -0.001171 0.005885
    endloop
  endfacet
  facet normal 0 0 0
    outer loop
      vertex -0.004000 -0.001171 0.005885
      vertex -0.004000 -0.002296 0.005543
      vertex 0.004000 -0.002296 0.005543
    endloop
  endfacet
  facet normal 0 0 0
    outer loop
      vertex -0.004000 -0.002296 0.005543
      vertex 0.004000 -0.003333 0.004989
      vertex 0.004000 -0.002296 0.005543
    endloop
  endfacet
  facet normal 0 0 0
    outer loop
      vertex -0.004000 -0.002296 0.005543
      vertex -0.004000 -0.003333 0.004989
      vertex 0.004000 -0.003333 0.004989
    endloop
  endfacet
  facet normal 0 0 0
    outer loop
      vertex -0.004000 -0.003333 0.004989
      vertex 0.004000 -0.004243 0.004243
      vertex 0.004000 -0.003333 0.004989
    endloop
  endfacet
  facet normal 0 0 0
    outer loop
      vertex -0.004000 -0.003333 0.004989
      vertex -0.004000 -0.004243 0.004243
      vertex 0.004000 -0.004243 0.004243
    endloop
  endfacet
  facet normal 0 0 0
    outer loop
      vertex -0.004000 -0.004243 0.004243
      vertex 0.004000 -0.004989 0.003333
      vertex 0.004000 -0.004243 0.004243
    endloop
  endfacet
  facet normal 0 0 0
    outer loop
      vertex -0.004000 -0.004243 0.004243
      vertex -0.004000 -0.004989 0.003333
      vertex 0.004000 -0.004989 0.003333
    endloop
  endfacet
  facet normal 0 0 0
    outer loop
      vertex -0.004000 -0.004989 0.003333
      vertex 0.004000 -0.005543 0.002296
      vertex 0.004000 -0.004989 0.003333
    endloop
  endfacet
  facet normal 0 0 0
    outer loop
      vertex -0.004000 -0.004989 0.003333
      vertex -0.004000 -0.005543 0.002296
      vertex 0.004000 -0.005543 0.002296
    endloop
  endfacet
  facet normal 0 0 0
    outer loop
      vertex -0.004000 -0.005543 0.002296
      vertex 0.004000 -0.005885 0.001171
      vertex 0.004000 -0.005543 0.002296
    endloop
  endfacet
  facet normal 0 0 0
    outer loop
      vertex -0.004000 -0.005543 0.002296
      vertex -0.004000 -0.005885 0.001171
      vertex 0.004000 -0.005885 0.001171
    endloop
  endfacet
  facet normal 0 0 0
    outer loop
      vertex -0.004000 -0.005885 0.001171
      vertex 0.004000 -0.006000 0.000000
      vertex 0.004000 -0.005885 0.001171
    endloop
  endfacet
  facet normal 0 0 0
    outer loop
      vertex -0.004000 -0.005885 0.001171
      vertex -0.004000 -0.006000 0.000000
      vertex 0.004000 -0.006000 0.000000
    endloop
  endfacet
  facet normal 0 0 0
    outer loop
      vertex -0.004000 -0.006000 0.000000
      vertex 0.004000 -0.005885 -0.001171
      vertex 0.004000 -0.006000 0.000000
    endloop
  endfacet
  facet normal 0 0 0
    outer loop
      vertex -0.004000 -0.006000 0.000000
      vertex -0.004000 -0.005885 -0.001171
      vertex 0.004000 -0.005885 -0.001171
    endloop
  endfacet
  facet normal 0 0 0
    outer loop
      vertex -0.004000 -0.005885 -0.001171
      vertex 0.004000 -0.005543 -0.002296
      vertex 0.004000 -0.005885 -0.001171
    endloop
  endfacet
  facet normal 0 0 0
    outer loop
      vertex -0.004000 -0.005885 -0.001171
      vertex -0.004000 -0.005543 -0.002296
      vertex 0.004000 -0.005543 -0.002296
    endloop
  endfacet
  facet normal 0 0 0
    outer loop
      vertex -0.004000 -0.005543 -0.002296
      vertex 0.004000 -0.004989 -0.003333
      vertex 0.004000 -0.005543 -0.002296
    endloop
  endfacet
  facet normal 0 0 0
    outer loop
      vertex -0.004000 -0.005543 -0.002296
      vertex -0.004000 -0.004989 -0.003333
      vertex 0.004000 -0.004989 -0.003333
    endloop
  endfacet
  facet normal 0 0 0
    outer loop
      vertex -0.004000 -0.004989 -0.003333
      vertex 0.004000 -0.004243 -0.004243
      vertex 0.004000 -0.004989 -0.003333
    endloop
  endfacet
  facet normal 0 0 0
    outer loop
      vertex -0.004000 -0.004989 -0.003333
      vertex -0.004000 -0.004243 -0.004243
      vertex 0.004000 -0.004243 -0.004243
    endloop
  endfacet
  facet normal 0 0 0
    outer loop
      vertex -0.004000 -0.004243 -0.004243
      vertex 0.004000 -0.003333 -0.004989
      vertex 0.004000 -0.004243 -0.004243
    endloop
  endfacet
  facet normal 0 0 0
    outer loop
      vertex -0.004000 -0.004243 -0.004243
      vertex -0.004000 -0.003333 -0.004989
      vertex 0.004000 -0.003333 -0.004989
    endloop
  endfacet
  facet normal 0 0 0
    outer loop
      vertex -0.004000 -0.003333 -0.004989
      vertex 0.004000 -0.002296 -0.005543
      vertex 0.004000 -0.003333 -0.004989
    endloop
  endfacet
  facet normal 0 0 0
    outer loop
      vertex -0.004000 -0.003333 -0.004989
      vertex -0.004000 -0.002296 -0.005543
      vertex 0.004000 -0.002296 -0.005543
    endloop
  endfacet
  facet normal 0 0 0
    outer loop
      vertex -0.004000 -0.002296 -0.005543
      vertex 0.004000 -0.001171 -0.005885
      vertex 0.004000 -0.002296 -0.005543
    endloop
  endfacet
  facet normal 0 0 0
    outer loop
      vertex -0.004000 -0.002296 -0.005543
      vertex -0.004000 -0.001171 -0.005885
      vertex 0.004000 -0.001171 -0.005885
    endloop
  endfacet
  facet normal 0 0 0
    outer loop
      vertex -0.004000 -0.001171 -0.005885
      vertex 0.004000 -0.000000 -0.006000
      vertex 0.004000 -0.001171 -0.005885
    endloop
  endfacet
  facet normal 0 0 0
    outer loop
      vertex -0.004000 -0.001171 -0.005885
      vertex -0.004000 -0.000000 -0.006000
      vertex 0.004000 -0.000000 -0.006000
    endloop
  endfacet
  facet normal 0 0 0
    outer loop
      vertex -0.004000 -0.000000 -0.006000
      vertex 0.004000 0.001171 -0.005885
      vertex 0.004000 -0.000000 -0.006000
    endloop
  endfacet
  facet normal 0 0 0
    outer loop
      vertex -0.004000 -0.000000 -0.006000
      vertex -0.004000 0.001171 -0.005885
      vertex 0.004000 0.001171 -0.005885
    endloop
  endfacet
  facet normal 0 0 0
    outer loop
      vertex -0.004000 0.001171 -0.005885
      vertex 0.004000 0.002296 -0.005543
      vertex 0.004000 0.001171 -0.005885
    endloop
  endfacet
  facet normal 0 0 0
    outer loop
      vertex -0.004000 0.001171 -0.005885
      vertex -0.004000 0.002296 -0.005543
      vertex 0.004000 0.002296 -0.005543
    endloop
  endfacet
  facet normal 0 0 0
    outer loop
      vertex -0.004000 0.002296 -0.005543
      vertex 0.004000 0.003333 -0.004989
      vertex 0.004000 0.002296 -0.005543
    endloop
  endfacet
  facet normal 0 0 0
    outer loop
      vertex -0.004000 0.002296 -0.005543
      vertex -0.004000 0.003333 -0.004989
      vertex 0.004000 0.003333 -0.004989
    endloop
  endfacet
  facet normal 0 0 0
    outer loop
      vertex -0.004000 0.003333 -0.004989
      vertex 0.004000 0.004243 -0.004243
      vertex 0.004000 0.003333 -0.004989
    endloop
  endfacet
  facet normal 0 0 0
    outer loop
      vertex -0.004000 0.003333 -0.004989
      vertex -0.004000 0.004243 -0.004243
      vertex 0.004000 0.004243 -0.004243
    endloop
  endfacet
  facet normal 0 0 0
    outer loop
      vertex -0.004000 0.004243 -0.004243
      vertex 0.004000 0.004989 -0.003333
      vertex 0.004000 0.004243 -0.004243
    endloop
  endfacet
  facet normal 0 0 0
    outer loop
      vertex -0.004000 0.004243 -0.004243
      vertex -0.004000 0.004989 -0.003333
      vertex 0.004000 0.004989 -0.003333
    endloop
  endfacet
  facet normal 0 0 0
    outer loop
      vertex -0.004000 0.004989 -0.003333
      vertex 0.004000 0.005543 -0.002296
      vertex 0.004000 0.004989 -0.003333
    endloop
  endfacet
  facet normal 0 0 0
    outer loop
      vertex -0.004000 0.004989 -0.003333
      vertex -0.004000 0.005543 -0.002296
      vertex 0.004000 0.005543 -0.002296
    endloop
  endfacet
  facet normal 0 0 0
    outer loop
      vertex -0.004000 0.005543 -0.002296
      vertex 0.004000 0.005885 -0.001171
      vertex 0.004000 0.005543 -0.002296
    endloop
  endfacet
  facet normal 0 0 0
    outer loop
      vertex -0.004000 0.005543 -0.002296
      vertex -0.004000 0.005885 -0.001171
      vertex 0.004000 0.005885 -0.001171
    endloop
  endfacet
  facet normal 0 0 0
    outer loop
      vertex -0.004000 0.005885 -0.001171
      vertex 0.004000 0.006000 -0.000000
      vertex 0.004000 0.005885 -0.001171
    endloop
  endfacet
  facet normal 0 0 0
    outer loop
      vertex -0.004000 0.005885 -0.001171
      vertex -0.004000 0.006000 -0.000000
      vertex 0.004000 0.006000 -0.000000
    endloop
  endfacet
  facet normal 0 0 0
    outer loop
      vertex 0.004000 -0.014000 -0.012000
      vertex 0.040000 -0.014000 -0.012000
      vertex 0.040000 0.014000 -0.012000
    endloop
  endfacet
  facet normal 0 0 0
    outer loop
      vertex 0.004000 -0.014000 -0.012000
      vertex 0.040000 0.014000 -0.012000
      vertex 0.004000 0.014000 -0.012000
    endloop
  endfacet
  facet normal 0 0 0
    outer loop
      vertex 0.004000 -0.014000 0.012000
      vertex 0.040000 0.014000 0.012000
      vertex 0.040000 -0.014000 0.012000
    endloop
  endfacet
  facet normal 0 0 0
    outer loop
      vertex 0.004000 -0.014000 0.012000
      vertex 0.004000 0.014000 0.012000
      vertex 0.040000 0.014000 0.012000
    endloop
  endfacet
  facet normal 0 0 0
    outer loop
      vertex 0.004000 -0.014000 -0.012000
      vertex 0.004000 -0.014000 0.012000
      vertex 0.040000 -0.014000 0.012000
    endloop
  endfacet
  facet normal 0 0 0
    outer loop
      vertex 0.004000 -0.014000 -0.012000
      vertex 0.040000 -0.014000 0.012000
      vertex 0.040000 -0.014000 -0.012000
    endloop
  endfacet
  facet normal 0 0 0
    outer loop
      vertex 0.040000 -0.014000 -0.012000
      vertex 0.040000 -0.014000 0.012000
      vertex 0.040000 0.014000 0.012000
    endloop
  endfacet
  facet normal 0 0 0
    outer loop
      vertex 0.040000 -0.014000 -0.012000
      vertex 0.040000 0.014000 0.012000
      vertex 0.040000 0.014000 -0.012000
    endloop
  endfacet
  facet normal 0 0 0
    outer loop
      vertex 0.040000 0.014000 -0.012000
      vertex 0.040000 0.014000 0.012000
      vertex 0.004000 0.014000 0.012000
    endloop
  endfacet
  facet normal 0 0 0
    outer loop
      vertex 0.040000 0.014000 -0.012000
      vertex 0.004000 0.014000 0.012000
      vertex 0.004000 0.014000 -0.012000
    endloop
  endfacet
  facet normal 0 0 0
    outer loop
      vertex 0.004000 0.014000 -0.012000
      vertex 0.004000 0.014000 0.012000
      vertex 0.004000 -0.014000 0.012000
    endloop
  endfacet
  facet normal 0 0 0
    outer loop
      vertex 0.004000 0.014000 -0.012000
      vertex 0.004000 -0.014000 0.012000
      vertex 0.004000 -0.014000 -0.012000
    endloop
  endfacet
  facet normal 0 0 0
    outer loop
      vertex 0.038000 -0.016000 0.006000
      vertex 0.052000 -0.016000 0.006000
      vertex 0.052000 -0.006000 0.006000
    endloop
  endfacet
  facet normal 0 0 0
    outer loop
      vertex 0.038000 -0.016000 0.006000
      vertex 0.052000 -0.006000 0.006000
      vertex 0.038000 -0.006000 0.006000
    endloop
  endfacet
  facet normal 0 0 0
    outer loop
      vertex 0.038000 -0.016000 0.016000
      vertex 0.052000 -0.006000 0.016000
      vertex 0.052000 -0.016000 0.016000
    endloop
  endfacet
  facet normal 0 0 0
    outer loop
      vertex 0.038000 -0.016000 0.016000
      vertex 0.038000 -0.006000 0.016000
      vertex 0.052000 -0.006000 0.016000
    endloop
  endfacet
  facet normal 0 0 0
    outer loop
      vertex 0.038000 -0.016000 0.006000
      vertex 0.038000 -0.016000 0.016000
      vertex 0.052000 -0.016000 0.016000
    endloop
  endfacet
  facet normal 0 0 0
    outer loop
      vertex 0.038000 -0.016000 0.006000
      vertex 0.052000 -0.016000 0.016000
      vertex 0.052000 -0.016000 0.006000
    endloop
  endfacet
  facet normal 0 0 0
    outer loop
      vertex 0.052000 -0.016000 0.006000
      vertex 0.052000 -0.016000 0.016000
      vertex 0.052000 -0.006000 0.016000
    endloop
  endfacet
  facet normal 0 0 0
    outer loop
      vertex 0.052000 -0.016000 0.006000
      vertex 0.052000 -0.006000 0.016000
      vertex 0.052000 -0.006000 0.006000
    endloop
  endfacet
  facet normal 0 0 0
    outer loop
      vertex 0.052000 -0.006000 0.006000
      vertex 0.052000 -0.006000 0.016000
      vertex 0.038000 -0.006000 0.016000
    endloop
  endfacet
  facet normal 0 0 0
    outer loop
      vertex 0.052000 -0.006000 0.006000
      vertex 0.038000 -0.006000 0.016000
      vertex 0.038000 -0.006000 0.006000
    endloop
  endfacet
  facet normal 0 0 0
    outer loop
      vertex 0.038000 -0.006000 0.006000
      vertex 0.038000 -0.006000 0.016000
      vertex 0.038000 -0.016000 0.016000
    endloop
  endfacet
  facet normal 0 0 0
    outer loop
      vertex 0.038000 -0.006000 0.006000
      vertex 0.038000 -0.016000 0.016000
      vertex 0.038000 -0.016000 0.006000
    endloop
  endfacet
  facet normal 0 0 0
    outer loop
      vertex 0.038000 0.006000 0.006000
      vertex 0.052000 0.006000 0.006000
      vertex 0.052000 0.016000 0.006000
    endloop
  endfacet
  facet normal 0 0 0
    outer loop
      vertex 0.038000 0.006000 0.006000
      vertex 0.052000 0.016000 0.006000
      vertex 0.038000 0.016000 0.006000
    endloop
  endfacet
  facet normal 0 0 0
    outer loop
      vertex 0.038000 0.006000 0.016000
      vertex 0.052000 0.016000 0.016000
      vertex 0.052000 0.006000 0.016000
    endloop
  endfacet
  facet normal 0 0 0
    outer loop
      vertex 0.038000 0.006000 0.016000
      vertex 0.038000 0.016000 0.016000
      vertex 0.052000 0.016000 0.016000
    endloop
  endfacet
  facet normal 0 0 0
    outer loop
      vertex 0.038000 0.006000 0.006000
      vertex 0.038000 0.006000 0.016000
      vertex 0.052000 0.006000 0.016000
    endloop
  endfacet
  facet normal 0 0 0
    outer loop
      vertex 0.038000 0.006000 0.006000
      vertex 0.052000 0.006000 0.016000
      vertex 0.052000 0.006000 0.006000
    endloop
  endfacet
  facet normal 0 0 0
    outer loop
      vertex 0.052000 0.006000 0.006000
      vertex 0.052000 0.006000 0.016000
      vertex 0.052000 0.016000 0.016000
    endloop
  endfacet
  facet normal 0 0 0
    outer loop
      vertex 0.052000 0.006000 0.006000
      vertex 0.052000 0.016000 0.016000
      vertex 0.052000 0.016000 0.006000
    endloop
  endfacet
  facet normal 0 0 0
    outer loop
      vertex 0.052000 0.016000 0.006000
      vertex 0.052000 0.016000 0.016000
      vertex 0.038000 0.016000 0.016000
    endloop
  endfacet
  facet normal 0 0 0
    outer loop
      vertex 0.052000 0.016000 0.006000
      vertex 0.038000 0.016000 0.016000
      vertex 0.038000 0.016000 0.006000
    endloop
  endfacet
  facet normal 0 0 0
    outer loop
      vertex 0.038000 0.016000 0.006000
      vertex 0.038000 0.016000 0.016000
      vertex 0.038000 0.006000 0.016000
    endloop
  endfacet
  facet normal 0 0 0
    outer loop
      vertex 0.038000 0.016000 0.006000
      vertex 0.038000 0.006000 0.016000
      vertex 0.038000 0.006000 0.006000
    endloop
  endfacet
  facet normal 0 0 0
    outer loop
      vertex 0.052000 -0.014500 -0.001500
      vertex 0.068000 -0.014500 -0.001500
      vertex 0.068000 -0.007500 -0.001500
    endloop
  endfacet
  facet normal 0 0 0
    outer loop
      vertex 0.052000 -0.014500 -0.001500
      vertex 0.068000 -0.007500 -0.001500
      vertex 0.052000 -0.007500 -0.001500
    endloop
  endfacet
  facet normal 0 0 0
    outer loop
      vertex 0.052000 -0.014500 0.014500
      vertex 0.068000 -0.007500 0.014500
      vertex 0.068000 -0.014500 0.014500
    endloop
  endfacet
  facet normal 0 0 0
    outer loop
      vertex 0.052000 -0.014500 0.014500
      vertex 0.052000 -0.007500 0.014500
      vertex 0.068000 -0.007500 0.014500
    endloop
  endfacet
  facet normal 0 0 0
    outer loop
      vertex 0.052000 -0.014500 -0.001500
      vertex 0.052000 -0.014500 0.014500
      vertex 0.068000 -0.014500 0.014500
    endloop
  endfacet
  facet normal 0 0 0
    outer loop
      vertex 0.052000 -0.014500 -0.001500
      vertex 0.068000 -0.014500 0.014500
      vertex 0.068000 -0.014500 -0.001500
    endloop
  endfacet
  facet normal 0 0 0
    outer loop
      vertex 0.068000 -0.014500 -0.001500
      vertex 0.068000 -0.014500 0.014500
      vertex 0.068000 -0.007500 0.014500
    endloop
  endfacet
  facet normal 0 0 0
    outer loop
      vertex 0.068000 -0.014500 -0.001500
      vertex 0.068000 -0.007500 0.014500
      vertex 0.068000 -0.007500 -0.001500
    endloop
  endfacet
  facet normal 0 0 0
    outer loop
      vertex 0.068000 -0.007500 -0.001500
      vertex 0.068000 -0.007500 0.014500
      vertex 0.052000 -0.007500 0.014500
    endloop
  endfacet
  facet normal 0 0 0
    outer loop
      vertex 0.068000 -0.007500 -0.001500
      vertex 0.052000 -0.007500 0.014500
      vertex 0.052000 -0.007500 -0.001500
    endloop
  endfacet
  facet normal 0 0 0
    outer loop
      vertex 0.052000 -0.007500 -0.001500
      vertex 0.052000 -0.007500 0.014500
      vertex 0.052000 -0.014500 0.014500
    endloop
  endfacet
  facet normal 0 0 0
    outer loop
      vertex 0.052000 -0.007500 -0.001500
      vertex 0.052000 -0.014500 0.014500
      vertex 0.052000 -0.014500 -0.001500
    endloop
  endfacet
  facet normal 0 0 0
    outer loop
      vertex 0.068000 -0.014500 -0.018500
      vertex 0.084000 -0.014500 -0.018500
      vertex 0.084000 -0.006500 -0.018500
    endloop
  endfacet
  facet normal 0 0 0
    outer loop
      vertex 0.068000 -0.014500 -0.018500
      vertex 0.084000 -0.006500 -0.018500
      vertex 0.068000 -0.006500 -0.018500
    endloop
  endfacet
  facet normal 0 0 0
    outer loop
      vertex 0.068000 -0.014500 0.005500
      vertex 0.084000 -0.006500 0.005500
      vertex 0.084000 -0.014500 0.005500
    endloop
  endfacet
  facet normal 0 0 0
    outer loop
      vertex 0.068000 -0.014500 0.005500
      vertex 0.068000 -0.006500 0.005500
      vertex 0.084000 -0.006500 0.005500
    endloop
  endfacet
  facet normal 0 0 0
    outer loop
      vertex 0.068000 -0.014500 -0.018500
      vertex 0.068000 -0.014500 0.005500
      vertex 0.084000 -0.014500 0.005500
    endloop
  endfacet
  facet normal 0 0 0
    outer loop
      vertex 0.068000 -0.014500 -0.018500
      vertex 0.084000 -0.014500 0.005500
      vertex 0.084000 -0.014500 -0.018500
    endloop
  endfacet
  facet normal 0 0 0
    outer loop
      vertex 0.084000 -0.014500 -0.018500
      vertex 0.084000 -0.014500 0.005500
      vertex 0.084000 -0.006500 0.005500
    endloop
  endfacet
  facet normal 0 0 0
    outer loop
      vertex 0.084000 -0.014500 -0.018500
      vertex 0.084000 -0.006500 0.005500
      vertex 0.084000 -0.006500 -0.018500
    endloop
  endfacet
  facet normal 0 0 0
    outer loop
      vertex 0.084000 -0.006500 -0.018500
      vertex 0.084000 -0.006500 0.005500
      vertex 0.068000 -0.006500 0.005500
    endloop
  endfacet
  facet normal 0 0 0
    outer loop
      vertex 0.084000 -0.006500 -0.018500
      vertex 0.068000 -0.006500 0.005500
      vertex 0.068000 -0.006500 -0.018500
    endloop
  endfacet
  facet normal 0 0 0
    outer loop
      vertex 0.068000 -0.006500 -0.018500
      vertex 0.068000 -0.006500 0.005500
      vertex 0.068000 -0.014500 0.005500
    endloop
  endfacet
  facet normal 0 0 0
    outer loop
      vertex 0.068000 -0.006500 -0.018500
      vertex 0.068000 -0.014500 0.005500
      vertex 0.068000 -0.014500 -0.018500
    endloop
  endfacet
  facet normal 0 0 0
    outer loop
      vertex 0.084000 -0.013500 -0.036500
      vertex 0.098000 -0.013500 -0.036500
      vertex 0.098000 -0.004500 -0.036500
    endloop
  endfacet
  facet normal 0 0 0
    outer loop
      vertex 0.084000 -0.013500 -0.036500
      vertex 0.098000 -0.004500 -0.036500
      vertex 0.084000 -0.004500 -0.036500
    endloop
  endfacet
  facet normal 0 0 0
    outer loop
      vertex 0.084000 -0.013500 -0.011500
      vertex 0.098000 -0.004500 -0.011500
      vertex 0.098000 -0.013500 -0.011500
    endloop
  endfacet
  facet normal 0 0 0
    outer loop
      vertex 0.084000 -0.013500 -0.011500
      vertex 0.084000 -0.004500 -0.011500
      vertex 0.098000 -0.004500 -0.011500
    endloop
  endfacet
  facet normal 0 0 0
    outer loop
      vertex 0.084000 -0.013500 -0.036500
      vertex 0.084000 -0.013500 -0.011500
      vertex 0.098000 -0.013500 -0.011500
    endloop
  endfacet
  facet normal 0 0 0
    outer loop
      vertex 0.084000 -0.013500 -0.036500
      vertex 0.098000 -0.013500 -0.011500
      vertex 0.098000 -0.013500 -0.036500
    endloop
  endfacet
  facet normal 0 0 0
    outer loop
      vertex 0.098000 -0.013500 -0.036500
      vertex 0.098000 -0.013500 -0.011500
      vertex 0.098000 -0.004500 -0.011500
    endloop
  endfacet
  facet normal 0 0 0
    outer loop
      vertex 0.098000 -0.013500 -0.036500
      vertex 0.098000 -0.004500 -0.011500
      vertex 0.098000 -0.004500 -0.036500
    endloop
  endfacet
  facet normal 0 0 0
    outer loop
      vertex 0.098000 -0.004500 -0.036500
      vertex 0.098000 -0.004500 -0.011500
      vertex 0.084000 -0.004500 -0.011500
    endloop
  endfacet
  facet normal 0 0 0
    outer loop
      vertex 0.098000 -0.004500 -0.036500
      vertex 0.084000 -0.004500 -0.011500
      vertex 0.084000 -0.004500 -0.036500
    endloop
  endfacet
  facet normal 0 0 0
    outer loop
      vertex 0.084000 -0.004500 -0.036500
      vertex 0.084000 -0.004500 -0.011500
      vertex 0.084000 -0.013500 -0.011500
    endloop
  endfacet
  facet normal 0 0 0
    outer loop
      vertex 0.084000 -0.004500 -0.036500
      vertex 0.084000 -0.013500 -0.011500
      vertex 0.084000 -0.013500 -0.036500
    endloop
  endfacet
  facet normal 0 0 0
    outer loop
      vertex 0.052000 0.007500 -0.001500
      vertex 0.068000 0.007500 -0.001500
      vertex 0.068000 0.014500 -0.001500
    endloop
  endfacet
  facet normal 0 0 0
    outer loop
      vertex 0.052000 0.007500 -0.001500
      vertex 0.068000 0.014500 -0.001500
      vertex 0.052000 0.014500 -0.001500
    endloop
  endfacet
  facet normal 0 0 0
    outer loop
      vertex 0.052000 0.007500 0.014500
      vertex 0.068000 0.014500 0.014500
      vertex 0.068000 0.007500 0.014500
    endloop
  endfacet
  facet normal 0 0 0
    outer loop
      vertex 0.052000 0.007500 0.014500
      vertex 0.052000 0.014500 0.014500
      vertex 0.068000 0.014500 0.014500
    endloop
  endfacet
  facet normal 0 0 0
    outer loop
      vertex 0.052000 0.007500 -0.001500
      vertex 0.052000 0.007500 0.014500
      vertex 0.068000 0.007500 0.014500
    endloop
  endfacet
  facet normal 0 0 0
    outer loop
      vertex 0.052000 0.007500 -0.001500
      vertex 0.068000 0.007500 0.014500
      vertex 0.068000 0.007500 -0.001500
    endloop
  endfacet
  facet normal 0 0 0
    outer loop
      vertex 0.068000 0.007500 -0.001500
      vertex 0.068000 0.007500 0.014500
      vertex 0.068000 0.014500 0.014500
    endloop
  endfacet
  facet normal 0 0 0
    outer loop
      vertex 0.068000 0.007500 -0.001500
      vertex 0.068000 0.014500 0.014500
      vertex 0.068000 0.014500 -0.001500
    endloop
  endfacet
  facet normal 0 0 0
    outer loop
      vertex 0.068000 0.014500 -0.001500
      vertex 0.068000 0.014500 0.014500
      vertex 0.052000 0.014500 0.014500
    endloop
  endfacet
  facet normal 0 0 0
    outer loop
      vertex 0.068000 0.014500 -0.001500
      vertex 0.052000 0.014500 0.014500
      vertex 0.052000 0.014500 -0.001500
    endloop
  endfacet
  facet normal 0 0 0
    outer loop
      vertex 0.052000 0.014500 -0.001500
      vertex 0.052000 0.014500 0.014500
      vertex 0.052000 0.007500 0.014500
    endloop
  endfacet
  facet normal 0 0 0
    outer loop
      vertex 0.052000 0.014500 -0.001500
      vertex 0.052000 0.007500 0.014500
      vertex 0.052000 0.007500 -0.001500
    endloop
  endfacet
  facet normal 0 0 0
    outer loop
      vertex 0.068000 0.006500 -0.018500
      vertex 0.084000 0.006500 -0.018500
      vertex 0.084000 0.014500 -0.018500
    endloop
  endfacet
  facet normal 0 0 0
    outer loop
      vertex 0.068000 0.006500 -0.018500
      vertex 0.084000 0.014500 -0.018500
      vertex 0.068000 0.014500 -0.018500
    endloop
  endfacet
  facet normal 0 0 0
    outer loop
      vertex 0.068000 0.006500 0.005500
      vertex 0.084000 0.014500 0.005500
      vertex 0.084000 0.006500 0.005500
    endloop
  endfacet
  facet normal 0 0 0
    outer loop
      vertex 0.068000 0.006500 0.005500
      vertex 0.068000 0.014500 0.005500
      vertex 0.084000 0.014500 0.005500
    endloop
  endfacet
  facet normal 0 0 0
    outer loop
      vertex 0.068000 0.006500 -0.018500
      vertex 0.068000 0.006500 0.005500
      vertex 0.084000 0.006500 0.005500
    endloop
  endfacet
  facet normal 0 0 0
    outer loop
      vertex 0.068000 0.006500 -0.018500
      vertex 0.084000 0.006500 0.005500
      vertex 0.084000 0.006500 -0.018500
    endloop
  endfacet
  facet normal 0 0 0
    outer loop
      vertex 0.084000 0.006500 -0.018500
      vertex 0.084000 0.006500 0.005500
      vertex 0.084000 0.014500 0.005500
    endloop
  endfacet
  facet normal 0 0 0
    outer loop
      vertex 0.084000 0.006500 -0.018500
      vertex 0.084000 0.014500 0.005500
      vertex 0.084000 0.014500 -0.018500
    endloop
  endfacet
  facet normal 0 0 0
    outer loop
      vertex 0.084000 0.014500 -0.018500
      vertex 0.084000 0.014500 0.005500
      vertex 0.068000 0.014500 0.005500
    endloop
  endfacet
  facet normal 0 0 0
    outer loop
      vertex 0.084000 0.014500 -0.018500
      vertex 0.068000 0.014500 0.005500
      vertex 0.068000 0.014500 -0.018500
    endloop
  endfacet
  facet normal 0 0 0
    outer loop
      vertex 0.068000 0.014500 -0.018500
      vertex 0.068000 0.014500 0.005500
      vertex 0.068000 0.006500 0.005500
    endloop
  endfacet
  facet normal 0 0 0
    outer loop
      vertex 0.068000 0.014500 -0.018500
      vertex 0.068000 0.006500 0.005500
      vertex 0.068000 0.006500 -0.018500
    endloop
  endfacet
  facet normal 0 0 0
    outer loop
      vertex 0.084000 0.004500 -0.036500
      vertex 0.098000 0.004500 -0.036500
      vertex 0.098000 0.013500 -0.036500
    endloop
  endfacet
  facet normal 0 0 0
    outer loop
      vertex 0.084000 0.004500 -0.036500
      vertex 0.098000 0.013500 -0.036500
      vertex 0.084000 0.013500 -0.036500
    endloop
  endfacet
  facet normal 0 0 0
    outer loop
      vertex 0.084000 0.004500 -0.011500
      vertex 0.098000 0.013500 -0.011500
      vertex 0.098000 0.004500 -0.011500
    endloop
  endfacet
  facet normal 0 0 0
    outer loop
      vertex 0.084000 0.004500 -0.011500
      vertex 0.084000 0.013500 -0.011500
      vertex 0.098000 0.013500 -0.011500
    endloop
  endfacet
  facet normal 0 0 0
    outer loop
      vertex 0.084000 0.004500 -0.036500
      vertex 0.084000 0.004500 -0.011500
      vertex 0.098000 0.004500 -0.011500
    endloop
  endfacet
  facet normal 0 0 0
    outer loop
      vertex 0.084000 0.004500 -0.036500
      vertex 0.098000 0.004500 -0.011500
      vertex 0.098000 0.004500 -0.036500
    endloop
  endfacet
  facet normal 0 0 0
    outer loop
      vertex 0.098000 0.004500 -0.036500
      vertex 0.098000 0.004500 -0.011500
      vertex 0.098000 0.013500 -0.011500
    endloop
  endfacet
  facet normal 0 0 0
    outer loop
      vertex 0.098000 0.004500 -0.036500
      vertex 0.098000 0.013500 -0.011500
      vertex 0.098000 0.013500 -0.036500
    endloop
  endfacet
  facet normal 0 0 0
    outer loop
      vertex 0.098000 0.013500 -0.036500
      vertex 0.098000 0.013500 -0.011500
      vertex 0.084000 0.013500 -0.011500
    endloop
  endfacet
  facet normal 0 0 0
    outer loop
      vertex 0.098000 0.013500 -0.036500
      vertex 0.084000 0.013500 -0.011500
      vertex 0.084000 0.013500 -0.036500
    endloop
  endfacet
  facet normal 0 0 0
    outer loop
      vertex 0.084000 0.013500 -0.036500
      vertex 0.084000 0.013500 -0.011500
      vertex 0.084000 0.004500 -0.011500
    endloop
  endfacet
  facet normal 0 0 0
    outer loop
      vertex 0.084000 0.013500 -0.036500
      vertex 0.084000 0.004500 -0.011500
      vertex 0.084000 0.004500 -0.036500
    endloop
  endfacet
endsolid soft_gripper
